# xmcd
#
# Track frame offsets:
#	150
#	17198
#	42382
#	59947
#	79826
#	96010
#	112883
#	129366
#	147688
#	163653
#	178955
#	196281
#	208422
#	226165
#	241917
#	257188
#	272075
#	288415
#
# Disc length: 4130 seconds
#
# Revision: 1
# Processed by: cddbd v1.5.2PL0 Copyright (c) Steve Scherf et al.
# Submitted via: audiograbber 1.81.03
#
DISCID=16102012
DTITLE=Various Artist - Hell Yeah! Disc 1
DYEAR=2012
DGENRE=Country
TTITLE0=McAlister Kemp - Hell Yeah
TTITLE1=Toby Keith - I Love This Bar [Album Version]
TTITLE2=Baylou - Thinkin' About Drinkin' About You
TTITLE3=Hayes Caril - Bad Liver And A Broken Heart [Album Version]
TTITLE4=Adam Brand - Cigarettes and Whiskey
TTITLE5=Wilkinsons, The - Six Pack
TTITLE6=Blake Shelton - The More I Drink
TTITLE7=Jamey Johnson - That Lonesome Song [Album Version]
TTITLE8=Doug Bruce - What I'm Drinkin' About
TTITLE9=Adam Toms - Rowdy Together
TTITLE10=Julie Roberts - Chasin' Whiskey [Album Version]
TTITLE11=Travis Tritt and Marty Stuart - The Whiskey Ain't Workin' [Remastered LP
TTITLE11=Version]
TTITLE12=Luke dickens - Thinking About You
TTITLE13=Corey Colum - Humptydoo Hotel
TTITLE14=John Lee Kooker - One Bourbon, One Scotch, One Beer [Album Version]
TTITLE15=Emmylou Harris - Bluebird Wine [Remastered LP Version]
TTITLE16=Sunny Cowgirls, The - Six Pack Short
TTITLE17=Uncle Kracker - Whiskey and Water [Amended LP Version]
EXTD=
EXTT0=
EXTT1=
EXTT2=
EXTT3=
EXTT4=
EXTT5=
EXTT6=
EXTT7=
EXTT8=
EXTT9=
EXTT10=
EXTT11=
EXTT12=
EXTT13=
EXTT14=
EXTT15=
EXTT16=
EXTT17=
PLAYORDER=
